<svg width="14" height="20" viewBox="0 0 14 20" fill="none" xmlns="http://www.w3.org/2000/svg">
<path d="M13.25 9C13.4312 9.00001 13.6063 9.06564 13.7429 9.18477C13.8795 9.30389 13.9684 9.46845 13.993 9.648L14 9.75V10.25C14.0002 11.9536 13.3561 13.5942 12.1971 14.8428C11.0381 16.0914 9.44989 16.8556 7.751 16.982L7.75 19.25C7.74994 19.44 7.67776 19.6229 7.54803 19.7618C7.4183 19.9006 7.2407 19.9851 7.05112 19.998C6.86154 20.011 6.67411 19.9515 6.5267 19.8316C6.37929 19.7117 6.2829 19.5402 6.257 19.352L6.25 19.25V16.982C4.59151 16.8588 3.03687 16.1278 1.88421 14.929C0.73155 13.7302 0.0620134 12.148 0.00400019 10.486L0 10.25V9.75C5.82426e-05 9.55998 0.0722443 9.37706 0.201972 9.23821C0.331701 9.09936 0.509299 9.01493 0.69888 9.00197C0.888462 8.98902 1.07589 9.04852 1.2233 9.16843C1.37071 9.28835 1.4671 9.45975 1.493 9.648L1.5 9.75V10.25C1.49989 11.6051 2.02372 12.9077 2.96194 13.8854C3.90015 14.8632 5.18008 15.4402 6.534 15.496L6.75 15.5H7.25C8.60507 15.5001 9.9077 14.9763 10.8854 14.0381C11.8632 13.0998 12.4402 11.8199 12.496 10.466L12.5 10.25V9.75C12.5 9.55109 12.579 9.36032 12.7197 9.21967C12.8603 9.07902 13.0511 9 13.25 9ZM7 0C8.06087 0 9.07828 0.421427 9.82843 1.17157C10.5786 1.92172 11 2.93913 11 4V10C11 11.0609 10.5786 12.0783 9.82843 12.8284C9.07828 13.5786 8.06087 14 7 14C5.93913 14 4.92172 13.5786 4.17157 12.8284C3.42143 12.0783 3 11.0609 3 10V4C3 2.93913 3.42143 1.92172 4.17157 1.17157C4.92172 0.421427 5.93913 0 7 0ZM7 1.5C6.33696 1.5 5.70107 1.76339 5.23223 2.23223C4.76339 2.70107 4.5 3.33696 4.5 4V10C4.5 10.663 4.76339 11.2989 5.23223 11.7678C5.70107 12.2366 6.33696 12.5 7 12.5C7.66304 12.5 8.29893 12.2366 8.76777 11.7678C9.23661 11.2989 9.5 10.663 9.5 10V4C9.5 3.33696 9.23661 2.70107 8.76777 2.23223C8.29893 1.76339 7.66304 1.5 7 1.5Z" fill="#0084FF"/>
</svg>
